#Comment line ignore any data following # character 
#Hierarchical Translation and Rotation (.htr) file 
[Header]	
#Header keywords are followed by a single value 
FileType HTR		#Single word string
DataType HTRS		#Translation followed by rotation and scale data
FileVersion 1		#integer
NumSegments 64		#integer
NumFrames 3		#integer
DataFrameRate 30		#integer, data frame rate in this file
EulerRotationOrder ZYX
CalibrationUnits mm
RotationUnits Degrees
GlobalAxisofGravity Y
BoneLengthAxis Y
ScaleFactor 1.00
[SegmentNames&Hierarchy]
#CHILD	PARENT
Pinger_Root GLOBAL
Pelvis Pinger_Root
L_Hip Pelvis
R_Hip Pelvis
Rear_Leg01 Pelvis
Spine1 Pelvis
L_Leg01 L_Hip
L_Leg02 L_Leg01
L_Leg03 L_Leg02
L_Foot L_Leg03
L_Toe1_01 L_Foot
L_Toe2_01 L_Foot
L_Toe3_01 L_Foot
planeAlignerLeft L_Foot
L_Toe1_02 L_Toe1_01
L_Toe1_03 L_Toe1_02
L_Toe2_02 L_Toe2_01
L_Toe2_03 L_Toe2_02
L_Toe3_02 L_Toe3_01
L_Toe3_03 L_Toe3_02
planeLockWeightLeft planeAlignerLeft
R_Leg01 R_Hip
R_Leg02 R_Leg01
R_Leg03 R_Leg02
R_Foot R_Leg03
planeAlignerRight R_Foot
R_Toe1_01 R_Foot
R_Toe2_01 R_Foot
R_Toe3_01 R_Foot
planeLockWeightRight planeAlignerRight
R_Toe1_02 R_Toe1_01
R_Toe1_03 R_Toe1_02
R_Toe2_02 R_Toe2_01
R_Toe2_03 R_Toe2_02
R_Toe3_02 R_Toe3_01
R_Toe3_03 R_Toe3_02
Rear_Leg02 Rear_Leg01
Rear_Leg03 Rear_Leg02
Rear_Leg04 Rear_Leg03
Rear_Foot Rear_Leg04
planeAlignerCenter Rear_Foot
Rear_Toe1_01 Rear_Foot
Rear_Toe2_01 Rear_Foot
Rear_Toe3_01 Rear_Foot
planeLockWeightCenter planeAlignerCenter
Rear_Toe1_02 Rear_Toe1_01
Rear_Toe1_03 Rear_Toe1_02
Rear_Toe2_02 Rear_Toe2_01
Rear_Toe2_03 Rear_Toe2_02
Rear_Toe3_02 Rear_Toe3_01
Rear_Toe3_03 Rear_Toe3_02
Back_Bone Spine1
Head Spine1
Motor_Bone Back_Bone
Ping_Mechanism Back_Bone
BN_LookIK Head
bottomMouth Head
L_Mouth01 Head
L_mouthFront Head
mouthGun Head
R_Mouth01 Head
R_mouthFront Head
TopMouth Head
weapon_bone Head
[BasePosition]
#SegmentName Tx, Ty, Tz, Rx, Ry, Rz, BoneLength
Pinger_Root 0.000000 0.000000 0.000000 -90.000000 0.000000 0.000000 10.000000 
Pelvis 0.000000 0.000000 0.000000 0.000000 0.000000 0.000000 10.000000 
L_Hip 0.000000 0.000000 0.000000 0.000000 0.000000 0.000000 10.000000 
R_Hip 0.000000 0.000000 0.000000 0.000000 0.000000 0.000000 10.000000 
Rear_Leg01 0.000000 0.000000 0.000000 0.000000 0.000000 0.000000 10.000000 
Spine1 0.000000 0.000000 0.000000 0.000000 0.000000 0.000000 10.000000 
L_Leg01 0.000000 0.000000 0.000000 0.000000 0.000000 0.000000 10.000000 
L_Leg02 0.000000 0.000000 0.000000 0.000000 0.000000 0.000000 10.000000 
L_Leg03 0.000000 0.000000 0.000000 0.000000 0.000000 0.000000 10.000000 
L_Foot 0.000000 0.000000 0.000000 0.000000 0.000000 0.000000 10.000000 
L_Toe1_01 0.000000 0.000000 0.000000 0.000000 0.000000 0.000000 10.000000 
L_Toe2_01 0.000000 0.000000 0.000000 0.000000 0.000000 0.000000 10.000000 
L_Toe3_01 0.000000 0.000000 0.000000 0.000000 0.000000 0.000000 10.000000 
planeAlignerLeft 0.000000 0.000000 0.000000 0.000000 0.000000 0.000000 10.000000 
L_Toe1_02 0.000000 0.000000 0.000000 0.000000 0.000000 0.000000 10.000000 
L_Toe1_03 0.000000 0.000000 0.000000 0.000000 0.000000 0.000000 10.000000 
L_Toe2_02 0.000000 0.000000 0.000000 0.000000 0.000000 0.000000 10.000000 
L_Toe2_03 0.000000 0.000000 0.000000 0.000000 0.000000 0.000000 10.000000 
L_Toe3_02 0.000000 0.000000 0.000000 0.000000 0.000000 0.000000 10.000000 
L_Toe3_03 0.000000 0.000000 0.000000 0.000000 0.000000 0.000000 10.000000 
planeLockWeightLeft 0.000000 0.000000 0.000000 0.000000 0.000000 0.000000 10.000000 
R_Leg01 0.000000 0.000000 0.000000 0.000000 0.000000 0.000000 10.000000 
R_Leg02 0.000000 0.000000 0.000000 0.000000 0.000000 0.000000 10.000000 
R_Leg03 0.000000 0.000000 0.000000 0.000000 0.000000 0.000000 10.000000 
R_Foot 0.000000 0.000000 0.000000 0.000000 0.000000 0.000000 10.000000 
planeAlignerRight 0.000000 0.000000 0.000000 0.000000 0.000000 0.000000 10.000000 
R_Toe1_01 0.000000 0.000000 0.000000 0.000000 0.000000 0.000000 10.000000 
R_Toe2_01 0.000000 0.000000 0.000000 0.000000 0.000000 0.000000 10.000000 
R_Toe3_01 0.000000 0.000000 0.000000 0.000000 0.000000 0.000000 10.000000 
planeLockWeightRight 0.000000 0.000000 0.000000 0.000000 0.000000 0.000000 10.000000 
R_Toe1_02 0.000000 0.000000 0.000000 0.000000 0.000000 0.000000 10.000000 
R_Toe1_03 0.000000 0.000000 0.000000 0.000000 0.000000 0.000000 10.000000 
R_Toe2_02 0.000000 0.000000 0.000000 0.000000 0.000000 0.000000 10.000000 
R_Toe2_03 0.000000 0.000000 0.000000 0.000000 0.000000 0.000000 10.000000 
R_Toe3_02 0.000000 0.000000 0.000000 0.000000 0.000000 0.000000 10.000000 
R_Toe3_03 0.000000 0.000000 0.000000 0.000000 0.000000 0.000000 10.000000 
Rear_Leg02 0.000000 0.000000 0.000000 0.000000 0.000000 0.000000 10.000000 
Rear_Leg03 0.000000 0.000000 0.000000 0.000000 0.000000 0.000000 10.000000 
Rear_Leg04 0.000000 0.000000 0.000000 0.000000 0.000000 0.000000 10.000000 
Rear_Foot 0.000000 0.000000 0.000000 0.000000 0.000000 0.000000 10.000000 
planeAlignerCenter 0.000000 0.000000 0.000000 0.000000 0.000000 0.000000 10.000000 
Rear_Toe1_01 0.000000 0.000000 0.000000 0.000000 0.000000 0.000000 10.000000 
Rear_Toe2_01 0.000000 0.000000 0.000000 0.000000 0.000000 0.000000 10.000000 
Rear_Toe3_01 0.000000 0.000000 0.000000 0.000000 0.000000 0.000000 10.000000 
planeLockWeightCenter 0.000000 0.000000 0.000000 0.000000 0.000000 0.000000 10.000000 
Rear_Toe1_02 0.000000 0.000000 0.000000 0.000000 0.000000 0.000000 10.000000 
Rear_Toe1_03 0.000000 0.000000 0.000000 0.000000 0.000000 0.000000 10.000000 
Rear_Toe2_02 0.000000 0.000000 0.000000 0.000000 0.000000 0.000000 10.000000 
Rear_Toe2_03 0.000000 0.000000 0.000000 0.000000 0.000000 0.000000 10.000000 
Rear_Toe3_02 0.000000 0.000000 0.000000 0.000000 0.000000 0.000000 10.000000 
Rear_Toe3_03 0.000000 0.000000 0.000000 0.000000 0.000000 0.000000 10.000000 
Back_Bone 0.000000 0.000000 0.000000 0.000000 0.000000 0.000000 10.000000 
Head 0.000000 0.000000 0.000000 0.000000 0.000000 0.000000 10.000000 
Motor_Bone 0.000000 0.000000 0.000000 0.000000 0.000000 0.000000 10.000000 
Ping_Mechanism 0.000000 0.000000 0.000000 0.000000 0.000000 0.000000 10.000000 
BN_LookIK 0.000000 0.000000 0.000000 0.000000 0.000000 0.000000 10.000000 
bottomMouth 0.000000 0.000000 0.000000 0.000000 0.000000 0.000000 10.000000 
L_Mouth01 0.000000 0.000000 0.000000 0.000000 0.000000 0.000000 10.000000 
L_mouthFront 0.000000 0.000000 0.000000 0.000000 0.000000 0.000000 10.000000 
mouthGun 0.000000 0.000000 0.000000 0.000000 0.000000 0.000000 10.000000 
R_Mouth01 0.000000 0.000000 0.000000 0.000000 0.000000 0.000000 10.000000 
R_mouthFront 0.000000 0.000000 0.000000 0.000000 0.000000 0.000000 10.000000 
TopMouth 0.000000 0.000000 0.000000 0.000000 0.000000 0.000000 10.000000 
weapon_bone 0.000000 0.000000 0.000000 0.000000 0.000000 0.000000 10.000000 
#Beginning of Data. Separated by tabs
#Fr	Tx	Ty	Tz	Rx	Ry	Rz	SF
[Pinger_Root]
22 0.000000 -129.629364 0.000000 -0.000075 -0.000000 -0.000020 129.629364
23 0.000000 -259.258728 0.000000 -0.000075 -0.000000 -0.000020 259.258728
24 0.000000 -388.888580 0.000000 -0.000075 -0.000000 -0.000020 388.888550
[Pelvis]
22 145.938904 376.071808 5011.051758 19.413309 -85.261154 -11.059290 5027.262207
23 89.360397 382.472778 5035.943848 -26.855221 -85.195602 35.304211 5051.237793
24 24.583622 390.848602 5064.013672 -60.589100 -81.841133 69.104874 5079.133789
[L_Hip]
22 5.766392 125.831482 872.656799 -178.589432 -81.709145 87.734573 881.701050
23 5.766392 125.831482 872.656799 -178.253311 -81.787758 87.381340 881.701050
24 5.766392 125.831482 872.656799 -178.253311 -81.787758 87.381340 881.701050
[R_Hip]
22 5.765438 125.836372 -872.654907 -1.272551 81.734520 87.837959 881.699829
23 5.765438 125.836372 -872.654907 -1.746690 81.787712 87.381248 881.699829
24 5.765438 125.836372 -872.654907 -1.746690 81.787712 87.381248 881.699829
[Rear_Leg01]
22 -192.298416 -925.602966 -0.001907 -174.586884 -5.497292 -119.917084 945.367432
23 -192.298416 -925.602966 -0.001907 -179.429657 -4.012698 -119.951920 945.367432
24 -192.298416 -925.602966 -0.001907 178.337112 -3.974320 -123.444550 945.367432
[Spine1]
22 290.604584 5.007505 0.000477 -8.106024 -1.358027 20.701963 290.647736
23 290.604584 5.007505 0.000477 -7.730648 -1.159522 17.111216 290.647736
24 290.604584 5.007505 0.000477 -7.205502 -0.858909 12.409250 290.647736
[L_Leg01]
22 761.932007 -0.002384 -0.069261 82.216652 -7.482423 -79.724495 761.932068
23 761.932007 -0.002384 -0.069261 81.323776 -15.221307 -79.181564 761.932068
24 761.932007 -0.002384 -0.069261 79.922394 -24.946083 -77.970070 761.932068
[L_Leg02]
22 1441.140503 -0.000954 -0.000715 -1.511321 0.569901 -90.101006 1441.140503
23 1441.140503 -0.000954 -0.000715 -1.495834 0.585492 -93.755013 1441.140503
24 1441.140503 -0.000954 -0.000715 -1.463236 0.604848 -98.176498 1441.140503
[L_Leg03]
22 1686.963989 -0.000715 -0.000954 0.043696 -0.010158 98.226212 1686.963989
23 1686.963989 -0.000715 -0.000954 0.043710 -0.010099 98.069115 1686.963989
24 1686.963989 -0.000715 -0.000954 0.047027 -0.013574 97.438850 1686.963989
[L_Foot]
22 3041.570068 -30.715107 11.297464 -16.216124 16.213388 65.832695 3041.746094
23 3041.570068 -30.715107 11.297464 -15.249497 16.295315 65.862885 3041.746094
24 3041.570068 -30.715107 11.297464 -14.161219 16.412712 66.319908 3041.746094
[L_Toe1_01]
22 -188.216690 -224.732346 -21.137953 89.712082 -3.434679 -165.433182 293.899567
23 -188.216690 -224.732346 -21.137953 89.724831 -3.494527 -165.417328 293.899567
24 -188.216690 -224.732346 -21.137953 89.683563 -3.337766 -165.223068 293.899567
[L_Toe2_01]
22 200.746536 -219.926590 148.838394 -77.565842 -14.417819 -44.296852 332.896027
23 200.746536 -219.926590 148.838394 -77.546616 -14.365087 -44.410999 332.896027
24 200.746536 -219.926590 148.838394 -77.527504 -14.312325 -44.525112 332.896027
[L_Toe3_01]
22 188.832520 -219.859131 -191.078659 -105.055313 14.347095 -45.080677 347.140900
23 188.832520 -219.859131 -191.078659 -105.120827 14.479650 -45.202942 347.140900
24 188.832520 -219.859131 -191.078659 -105.186661 14.612070 -45.325428 347.140900
[planeAlignerLeft]
22 -5.563215 -607.900696 30.374292 0.000000 -90.000000 -90.001633 608.684448
23 -7.812644 -609.162781 28.462530 0.000000 -89.980217 -90.001633 609.877441
24 -10.062099 -610.424988 26.550753 0.000000 -90.000000 -90.001633 611.084961
[L_Toe1_02]
22 413.761139 0.000477 0.000000 0.001412 -22.418087 0.001412 413.761139
23 413.761139 0.000477 0.000000 0.001412 -22.414724 0.001412 413.761139
24 413.761139 0.000477 0.000000 0.001412 -22.411362 0.001412 413.761139
[L_Toe1_03]
22 464.317322 0.000358 -0.000089 0.016627 81.904610 0.016627 464.317322
23 464.317322 0.000358 -0.000089 0.015836 81.499870 0.015836 464.317322
24 464.317322 0.000358 -0.000089 0.015118 81.095085 0.015118 464.317322
[L_Toe2_02]
22 342.235809 -0.000477 0.000238 0.001181 -77.601677 0.001181 342.235809
23 342.235809 -0.000477 0.000238 0.001181 -77.462029 0.001181 342.235809
24 342.235809 -0.000477 0.000238 0.001181 -77.588875 0.001181 342.235809
[L_Toe2_03]
22 420.210846 -0.000715 0.000000 -179.996063 78.414101 -179.992554 420.210846
23 420.210846 -0.000715 0.000000 -179.996109 78.324768 -179.992584 420.210846
24 420.210846 -0.000715 0.000000 -179.996353 77.802673 -179.992828 420.210846
[L_Toe3_02]
22 329.270111 0.000954 0.000000 0.001177 -81.697403 0.001177 329.270111
23 329.270111 0.000954 0.000000 0.001177 -81.717026 0.001177 329.270111
24 329.270111 0.000954 0.000000 0.001177 -81.736618 0.001177 329.270111
[L_Toe3_03]
22 439.137451 -0.001907 0.000954 -179.997787 73.377525 -179.994263 439.137451
23 439.137451 -0.001907 0.000954 -179.997818 73.282013 -179.994278 439.137451
24 439.137451 -0.001907 0.000954 -179.997833 73.186462 -179.994293 439.137451
[planeLockWeightLeft]
22 -0.001068 0.000000 -0.000296 -0.011826 -0.004376 0.005620 0.001108
23 -0.001068 0.000000 -0.000296 -0.011826 -0.004376 0.005620 0.001108
24 -0.001068 0.000000 -0.000296 -0.011826 -0.004376 0.005620 0.001108
[R_Leg01]
22 761.455627 -0.001907 -0.000358 114.554047 -38.033566 58.953342 761.455688
23 761.455627 -0.001907 -0.000358 116.183159 -39.534008 57.465584 761.455688
24 761.455627 -0.001907 -0.000358 118.441872 -41.734413 55.439255 761.455688
[R_Leg02]
22 1441.140625 0.000000 -0.000238 0.181394 -0.046936 -108.703377 1441.140625
23 1441.140625 0.000000 -0.000238 0.191614 -0.038168 -104.346054 1441.140625
24 1441.140625 0.000000 -0.000238 0.194447 -0.018153 -99.279579 1441.140625
[R_Leg03]
22 1686.963989 0.000954 0.001431 -0.038825 0.010543 100.348518 1686.963989
23 1686.963989 0.000954 0.001431 -0.037233 0.008681 100.464348 1686.963989
24 1686.963989 0.000954 0.001431 -0.035644 0.006817 100.580154 1686.963989
[R_Foot]
22 3041.560059 -30.531288 -11.204481 10.794808 -21.020420 46.861370 3041.734131
23 3041.560059 -30.531288 -11.204481 11.656284 -21.132284 43.545338 3041.734131
24 3041.560059 -30.531288 -11.204481 12.523775 -21.197435 40.225872 3041.734131
[planeAlignerRight]
22 -5.075066 -713.748230 2.329911 0.000000 -89.965736 -90.004951 713.770020
23 -8.968185 -739.052063 4.306582 0.000000 -89.951546 -90.004936 739.118958
24 -12.861320 -764.356018 6.283260 0.000000 -89.951546 -90.004936 764.490051
[R_Toe1_01]
22 -188.383347 -224.864899 21.052242 90.805397 1.808197 -157.310730 294.101532
23 -188.383347 -224.864899 21.052242 90.893883 1.672814 -155.067444 294.101532
24 -188.383347 -224.864899 21.052242 90.976959 1.534127 -152.825348 294.101532
[R_Toe2_01]
22 200.637817 -220.002121 -148.787384 -103.553452 10.870156 -51.912449 332.857574
23 200.637817 -220.002121 -148.787384 -103.876328 10.396489 -53.720528 332.857574
24 200.637817 -220.002121 -148.787384 -104.183311 9.913184 -55.522697 332.857574
[R_Toe3_01]
22 188.606735 -220.092957 191.126343 -72.271568 -13.654229 -53.836128 347.192566
23 188.606735 -220.092957 191.126343 -71.781288 -13.267312 -55.728115 347.192566
24 188.606735 -220.092957 191.126343 -71.305122 -12.864888 -57.613602 347.192566
[planeLockWeightRight]
22 999.999329 0.000305 -0.000587 -0.011823 -0.004379 -0.000027 999.999329
23 999.999329 0.000305 -0.000618 -0.011823 -0.004379 -0.000027 999.999329
24 999.999329 0.000305 -0.000648 -0.011823 -0.004379 -0.000027 999.999329
[R_Toe1_02]
22 413.762085 0.000477 -0.000119 0.001400 -23.921400 0.001400 413.762085
23 413.762085 0.000477 -0.000119 0.001396 -24.452494 0.001396 413.762085
24 413.762085 0.000477 -0.000119 0.001392 -24.983580 0.001392 413.762085
[R_Toe1_03]
22 464.317810 0.000000 0.001088 0.008253 73.624969 0.008253 464.317810
23 464.317810 0.000000 0.001088 0.006925 70.464317 0.006925 464.317810
24 464.317810 0.000000 0.001088 0.005966 67.308403 0.005966 464.317810
[R_Toe2_02]
22 342.234741 -0.000954 0.000238 -0.000227 -74.701317 -0.000227 342.234741
23 342.234741 -0.000954 0.000238 0.000479 -74.000343 0.000479 342.234741
24 342.234741 -0.000954 0.000238 0.001186 -73.299385 0.001186 342.234741
[R_Toe2_03]
22 420.210846 0.000715 -0.000268 -179.972229 87.468742 -179.975723 420.210846
23 420.210846 0.000715 -0.000268 0.000000 89.584099 -0.003493 420.210846
24 420.210846 0.000715 -0.000268 -0.030969 87.986664 -0.034466 420.210846
[R_Toe3_02]
22 329.270355 -0.000477 -0.000954 0.001179 -78.780472 0.001179 329.270355
23 329.270355 -0.000477 -0.000954 0.001180 -77.991440 0.001180 329.270355
24 329.270355 -0.000477 -0.000954 0.001181 -77.202339 0.001181 329.270355
[R_Toe3_03]
22 439.137939 0.000238 0.001431 -179.989410 84.664391 -179.985916 439.137939
23 439.137939 0.000238 0.001431 -179.979004 87.104027 -179.975494 439.137939
24 439.137939 0.000238 0.001431 0.000000 89.542427 0.003501 439.137939
[Rear_Leg02]
22 1162.777710 -0.029802 0.005960 28.419178 -4.015628 -123.148132 1162.777710
23 1162.777710 -0.029802 0.005960 20.916834 -7.366894 -112.527885 1162.777710
24 1162.777710 -0.029802 0.005960 12.386456 -8.008924 -100.695152 1162.777710
[Rear_Leg03]
22 607.192505 -0.013351 -0.073195 0.009854 -0.006249 81.114655 607.192505
23 607.192505 -0.013351 -0.073195 0.009912 -0.006157 80.044861 607.192505
24 607.192505 -0.013351 -0.073195 0.010024 -0.005973 77.936249 607.192505
[Rear_Leg04]
22 995.874512 -0.020504 -0.011921 -0.042244 -0.010022 110.942078 995.874573
23 995.874512 -0.020504 -0.011921 -0.044791 -0.012588 102.761772 995.874573
24 995.874512 -0.020504 -0.011921 -0.043571 -0.016318 93.094345 995.874573
[Rear_Foot]
22 3096.176270 -0.067472 -0.041425 -110.881546 63.055500 77.903908 3096.176270
23 3096.176270 -0.067472 -0.041425 -118.024712 66.777901 61.802750 3096.176270
24 3096.176270 -0.067472 -0.041425 -128.014954 71.760437 41.680782 3096.176270
[planeAlignerCenter]
22 10.825164 205.192963 -760.943726 0.001660 -0.001660 179.998337 788.198364
23 5.788879 241.831802 -757.579346 0.001660 -0.001660 179.998337 795.262573
24 0.495463 283.199951 -756.645081 0.001660 -0.001660 179.998337 807.907349
[Rear_Toe1_01]
22 0.653352 83.966492 -371.173737 0.095249 39.628960 90.044212 380.553192
23 0.653352 83.966492 -371.173737 0.093866 39.607891 90.043839 380.553192
24 0.653352 83.966492 -371.173737 0.092479 39.586826 90.043488 380.553192
[Rear_Toe2_01]
22 178.200760 -294.826019 -362.060547 76.855972 84.553894 6.215666 499.765686
23 178.200760 -294.826019 -362.060547 90.327095 84.164474 19.719866 499.765686
24 178.200760 -294.826019 -362.060547 104.047394 83.314758 33.458744 499.765686
[Rear_Toe3_01]
22 -153.359680 -308.780914 -362.060852 -76.991562 83.819145 171.450729 499.952881
23 -153.359680 -308.780914 -362.060852 -88.875282 83.390877 159.528702 499.952881
24 -153.359680 -308.780914 -362.060852 -101.117561 82.528976 147.267441 499.952881
[planeLockWeightCenter]
22 -0.000078 0.000305 0.000000 -0.011814 -0.004373 -0.000015 0.000315
23 -0.000077 0.000305 0.000000 -0.011814 -0.004373 -0.000015 0.000315
24 -0.000076 0.000305 0.000000 -0.011814 -0.004373 -0.000015 0.000315
[Rear_Toe1_02]
22 379.707825 0.194073 0.000477 -0.000767 -33.624729 0.000838 379.707855
23 379.707825 0.194073 0.000477 -0.000767 -33.624729 0.000838 379.707855
24 379.707825 0.194073 0.000477 -0.000767 -33.624729 0.000838 379.707855
[Rear_Toe1_03]
22 500.129700 0.165701 0.000119 -179.972946 87.397064 -179.976440 500.129761
23 500.129700 0.165701 0.000119 0.000000 89.677361 -0.003501 500.129761
24 500.129700 0.165701 0.000119 -0.018555 86.755745 -0.022053 500.129761
[Rear_Toe2_02]
22 340.494507 0.000238 -0.000954 179.998825 -87.244522 179.998825 340.494507
23 340.494507 0.000238 -0.000954 179.998825 -87.144325 179.998825 340.494507
24 340.494507 0.000238 -0.000954 179.998825 -87.044083 179.998825 340.494507
[Rear_Toe2_03]
22 433.103577 0.000000 0.000238 -179.996262 54.878296 -179.999924 433.103546
23 433.103577 0.000000 0.000238 -179.996292 54.368038 -179.999969 433.103546
24 433.103577 0.000000 0.000238 -179.996307 53.857811 -180.000000 433.103546
[Rear_Toe3_02]
22 340.494141 -0.000358 -0.000477 -179.994171 -87.294693 -179.994171 340.494171
23 340.494141 -0.000358 -0.000477 -179.994171 -87.196831 -179.994171 340.494171
24 340.494141 -0.000358 -0.000477 -179.994171 -87.098625 -179.994171 340.494171
[Rear_Toe3_03]
22 433.103577 0.001431 -0.000238 179.992416 55.151409 179.999741 433.103546
23 433.103577 0.001431 -0.000238 179.992462 54.662804 179.999802 433.103546
24 433.103577 0.001431 -0.000238 179.992508 54.174210 179.999863 433.103546
[Back_Bone]
22 1312.175781 -701.934692 0.000954 -3.076915 1.270129 -84.530739 1488.125488
23 1312.175781 -701.934692 0.000954 -3.241300 0.793389 -84.820435 1488.125488
24 1312.175781 -701.934692 0.000954 -3.327602 0.046320 -84.752220 1488.125488
[Head]
22 1406.159424 809.709290 0.001431 -2.875773 1.553065 22.644276 1622.625488
23 1406.159424 809.709290 0.001431 -3.207683 1.517864 22.396879 1622.625488
24 1406.159424 809.709290 0.001431 -3.539428 1.481231 22.149694 1622.625488
[Motor_Bone]
22 1158.364380 -417.834747 0.000477 -5.513650 1.191243 -104.796593 1231.419434
23 1158.364380 -417.834747 0.000477 -3.495553 0.584008 -105.401466 1231.419434
24 1158.364380 -417.834747 0.000477 0.251848 -0.541806 -106.527901 1231.419434
[Ping_Mechanism]
22 1210.345703 -431.768188 22.760183 0.000103 -0.000053 82.120995 1285.254395
23 1227.657959 -439.135712 19.367613 0.000103 -0.000053 82.120995 1303.978271
24 1251.078491 -447.165497 14.413194 0.000103 -0.000053 82.120995 1328.669312
[BN_LookIK]
22 193.241119 1380.371704 -0.002861 0.000000 89.965736 -31.038179 1393.832153
23 193.241119 1380.371704 -0.002861 0.000000 89.965736 -31.038179 1393.832153
24 193.241119 1380.371704 -0.002861 0.000000 89.965736 -31.038179 1393.832153
[bottomMouth]
22 -435.092926 615.759399 -0.000954 -0.000022 0.000016 73.527184 753.966492
23 -435.092926 615.759399 -0.000954 -0.000022 0.000016 73.527184 753.966492
24 -435.092926 615.759399 -0.000954 -0.000022 0.000016 73.527184 753.966492
[L_Mouth01]
22 554.440979 7.658243 838.222046 150.204178 23.759130 109.605339 1005.027161
23 554.440979 7.658243 838.222046 150.204178 23.759130 109.605339 1005.027161
24 554.440979 7.658243 838.222046 150.204178 23.759130 109.605339 1005.027161
[L_mouthFront]
22 551.629089 934.514771 339.150421 0.000081 2.804060 79.119301 1136.941284
23 551.629089 934.514771 339.150421 0.000081 2.804060 79.119301 1136.941284
24 551.629089 934.514771 339.150421 0.000081 2.804060 79.119301 1136.941284
[mouthGun]
22 55.332661 1627.420898 0.000000 0.000023 0.000009 -11.038128 1628.361328
23 55.332661 1627.420898 0.000000 0.000023 0.000009 -11.038128 1628.361328
24 55.332661 1627.420898 0.000000 0.000023 0.000009 -11.038128 1628.361328
[R_Mouth01]
22 554.442383 7.659197 -838.223938 29.795891 -23.759109 109.605331 1005.029541
23 554.442383 7.659197 -838.223938 29.795891 -23.759109 109.605331 1005.029541
24 554.442383 7.659197 -838.223938 29.795891 -23.759109 109.605331 1005.029541
[R_mouthFront]
22 551.629089 934.514282 -339.151367 0.000029 -2.803930 79.119133 1136.941162
23 551.629089 934.514282 -339.151367 0.000029 -2.803930 79.119133 1136.941162
24 551.629089 934.514282 -339.151367 0.000029 -2.803930 79.119133 1136.941162
[TopMouth]
22 461.269867 -56.106091 -0.008583 -0.000059 -0.000268 92.025169 464.669525
23 461.269867 -56.106091 -0.008583 -0.000059 -0.000268 92.025169 464.669525
24 461.269867 -56.106091 -0.008583 -0.000059 -0.000268 92.025169 464.669525
[weapon_bone]
22 -987.239868 1448.372803 0.001431 0.000000 89.965736 -31.038221 1752.833740
23 -987.239868 1448.372803 0.001431 0.000000 89.965736 -31.038221 1752.833740
24 -987.239868 1448.372803 0.001431 0.000000 89.965736 -31.038221 1752.833740
